<svg viewBox="0 0 800 800" xmlns="http://www.w3.org/2000/svg">
  <!-- Background gradient -->
  <defs>
    <linearGradient id="sky" x1="0%" y1="0%" x2="0%" y2="100%">
      <stop offset="0%" stop-color="#fff3d4" />
      <stop offset="100%" stop-color="#ffca7a" />
    </linearGradient>
  </defs>
  
  <!-- Base sky background -->
  <rect width="800" height="800" fill="url(#sky)" />
  
  <!-- Sun -->
  <circle cx="650" cy="160" r="80" fill="#ffb52e" />
  
  <!-- Sun rays -->
  <g stroke="#ffb52e" stroke-width="8">
    <line x1="650" y1="50" x2="650" y2="20" />
    <line x1="650" y1="300" x2="650" y2="270" />
    <line x1="540" y1="160" x2="510" y2="160" />
    <line x1="790" y1="160" x2="760" y2="160" />
    <line x1="580" y1="90" x2="560" y2="70" />
    <line x1="720" y1="230" x2="740" y2="250" />
    <line x1="580" y1="230" x2="560" y2="250" />
    <line x1="720" y1="90" x2="740" y2="70" />
  </g>
  
  <!-- Far background buildings -->
  <g fill="#ffb766">
    <rect x="100" y="300" width="80" height="300" />
    <rect x="200" y="350" width="60" height="250" />
    <rect x="280" y="280" width="100" height="320" />
    <rect x="400" y="380" width="70" height="220" />
    <rect x="500" y="300" width="90" height="300" />
    <rect x="610" y="350" width="110" height="250" />
    <rect x="740" y="320" width="60" height="280" />
  </g>
  
  <!-- Mid-range buildings -->
  <g fill="#ff9642">
    <rect x="50" y="400" width="120" height="400" />
    <rect x="230" y="450" width="80" height="350" />
    <rect x="350" y="500" width="140" height="300" />
    <rect x="520" y="420" width="100" height="380" />
    <rect x="650" y="480" width="130" height="320" />
  </g>
  
  <!-- Street -->
  <rect x="0" y="650" width="800" height="150" fill="#ffb052" />
  
  <!-- Bus -->
  <g transform="translate(150, 680)">
    <rect x="0" y="0" width="120" height="50" rx="10" fill="#e06b00" />
    <rect x="0" y="35" width="120" height="25" rx="5" fill="#e06b00" />
    <rect x="10" y="10" width="20" height="20" fill="#fff" />
    <rect x="40" y="10" width="15" height="20" fill="#fff" />
    <rect x="65" y="10" width="15" height="20" fill="#fff" />
    <rect x="90" y="10" width="15" height="20" fill="#fff" />
    <circle cx="20" cy="60" r="10" fill="#333" />
    <circle cx="95" cy="60" r="10" fill="#333" />
  </g>
  
  <!-- Trees -->
  <g>
    <!-- Left tree -->
    <rect x="30" y="600" width="10" height="50" fill="#e06b00" />
    <circle cx="35" cy="580" r="30" fill="#ff8534" />
    
    <!-- Right tree -->
    <rect x="760" y="600" width="10" height="50" fill="#e06b00" />
    <circle cx="765" cy="580" r="30" fill="#ff8534" />
    
    <!-- Small trees -->
    <rect x="330" y="630" width="6" height="20" fill="#e06b00" />
    <circle cx="333" cy="620" r="15" fill="#ff8534" />
    
    <rect x="430" y="630" width="6" height="20" fill="#e06b00" />
    <circle cx="433" cy="620" r="15" fill="#ff8534" />
    
    <rect x="580" y="630" width="6" height="20" fill="#e06b00" />
    <circle cx="583" cy="620" r="15" fill="#ff8534" />
  </g>
</svg>